<?xml version="1.0" encoding="utf-8"?>
<!-- Generator: Adobe Illustrator 24.0.0, SVG Export Plug-In . SVG Version: 6.00 Build 0)  -->
<svg version="1.1" xmlns="http://www.w3.org/2000/svg" xmlns:xlink="http://www.w3.org/1999/xlink" x="0px" y="0px"
	 viewBox="0 0 72 72" style="enable-background:new 0 0 72 72;" xml:space="preserve">
<style type="text/css">
	.st0{fill:none;stroke:#000000;stroke-width:1.5;stroke-miterlimit:10;}
	.st1{fill:none;stroke:#060000;stroke-width:1.5;stroke-miterlimit:10;}
	.st2{fill:none;stroke:#060000;stroke-width:1.5;stroke-linejoin:round;stroke-miterlimit:10;}
	.st3{fill:none;stroke:#231F20;stroke-width:1.5;stroke-miterlimit:10;}
	.st4{display:none;}
	.st5{display:inline;}
	.st6{fill:#FFFFFF;}
	.st7{font-family:'SamsungOne-400';}
	.st8{font-size:12px;}
	.st9{fill:none;stroke:#FFFFFF;stroke-width:1.5;stroke-miterlimit:10;}
	.st10{fill:none;stroke:#FFFFFF;stroke-width:1.5;stroke-linejoin:round;stroke-miterlimit:10;}
</style>
<g id="black">
	<g>
		<g>
			<g>
				<path d="M38.32,32.09v0.75H33.4v-0.76l2.98-3.67c0.37-0.45,0.62-0.82,0.77-1.11s0.22-0.59,0.22-0.88c0-0.44-0.14-0.78-0.42-1.03
					s-0.67-0.38-1.16-0.38c-0.34,0-0.68,0.06-1.03,0.18s-0.66,0.28-0.94,0.48l-0.42-0.69c0.29-0.23,0.66-0.42,1.11-0.56
					s0.89-0.21,1.33-0.21c0.72,0,1.3,0.19,1.74,0.58s0.66,0.9,0.66,1.54c0,0.38-0.09,0.77-0.28,1.17s-0.49,0.85-0.91,1.38
					l-2.64,3.22H38.32z"/>
				<path d="M38.43,32.95h-5.15v-0.92l3-3.7c0.36-0.44,0.61-0.8,0.75-1.09c0.14-0.28,0.21-0.56,0.21-0.83
					c0-0.41-0.13-0.72-0.38-0.95c-0.26-0.23-0.62-0.35-1.08-0.35c-0.32,0-0.65,0.06-0.99,0.17c-0.34,0.11-0.64,0.27-0.91,0.46
					l-0.1,0.07l-0.54-0.88l0.08-0.06c0.3-0.24,0.68-0.44,1.15-0.58c0.46-0.14,0.92-0.22,1.36-0.22c0.74,0,1.35,0.2,1.82,0.61
					c0.46,0.41,0.7,0.96,0.7,1.63c0,0.4-0.1,0.81-0.29,1.21c-0.19,0.4-0.5,0.87-0.92,1.4l-2.48,3.04h3.79V32.95z M33.51,32.73h4.69
					V32.2h-4.04l2.79-3.41c0.41-0.51,0.71-0.97,0.89-1.35c0.18-0.38,0.26-0.75,0.26-1.12c0-0.61-0.2-1.09-0.62-1.46
					c-0.42-0.37-0.98-0.55-1.67-0.55c-0.42,0-0.86,0.07-1.3,0.21c-0.39,0.12-0.73,0.28-0.99,0.48l0.31,0.5
					c0.26-0.18,0.56-0.32,0.87-0.43c0.36-0.12,0.72-0.18,1.06-0.18c0.52,0,0.93,0.14,1.24,0.4c0.3,0.27,0.46,0.65,0.46,1.12
					c0,0.31-0.08,0.62-0.23,0.93c-0.15,0.3-0.41,0.69-0.78,1.14l-2.95,3.64V32.73z"/>
			</g>
			<g>
				<path d="M32.4,36.82v8.54v0.48h-0.79v-0.8c-0.21,0.31-0.47,0.55-0.78,0.71s-0.65,0.24-1.04,0.24c-0.74,0-1.32-0.29-1.73-0.88
					s-0.62-1.4-0.62-2.45c0-1.02,0.22-1.81,0.66-2.38s1.05-0.86,1.83-0.86c0.32,0,0.62,0.06,0.9,0.19s0.52,0.3,0.72,0.53v-3.33H32.4
					z M30.84,44.99c0.25-0.12,0.49-0.31,0.71-0.58v-3.48c-0.2-0.23-0.45-0.4-0.73-0.53s-0.58-0.19-0.89-0.19
					c-0.53,0-0.93,0.21-1.21,0.62s-0.41,1.03-0.41,1.84c0,0.83,0.14,1.45,0.43,1.88s0.71,0.63,1.26,0.63
					C30.31,45.17,30.59,45.11,30.84,44.99z"/>
				<path d="M29.79,46.11c-0.78,0-1.39-0.31-1.83-0.93c-0.43-0.6-0.64-1.45-0.64-2.51c0-1.04,0.23-1.86,0.69-2.45
					c0.46-0.6,1.11-0.9,1.92-0.9c0.33,0,0.65,0.07,0.94,0.2c0.21,0.09,0.39,0.21,0.56,0.36V36.7h1.07v9.25H31.5v-0.58
					c-0.18,0.2-0.38,0.36-0.61,0.48C30.56,46.02,30.19,46.11,29.79,46.11z M29.94,39.54c-0.75,0-1.32,0.27-1.74,0.81
					c-0.42,0.55-0.64,1.32-0.64,2.31c0,1.02,0.2,1.82,0.6,2.38c0.4,0.56,0.93,0.83,1.64,0.83c0.36,0,0.69-0.08,0.98-0.23
					c0.29-0.15,0.54-0.38,0.74-0.67l0.21-0.31v1.06h0.56v-8.79h-0.62v3.51l-0.2-0.22c-0.19-0.21-0.42-0.38-0.68-0.5
					C30.52,39.6,30.24,39.54,29.94,39.54z M30.01,45.29c-0.59,0-1.05-0.23-1.35-0.68c-0.3-0.44-0.45-1.09-0.45-1.94
					c0-0.83,0.14-1.47,0.43-1.9c0.29-0.45,0.73-0.67,1.3-0.67c0.33,0,0.64,0.07,0.94,0.2c0.29,0.13,0.55,0.32,0.76,0.56l0.03,0.03
					v3.57l-0.03,0.03c-0.24,0.28-0.49,0.48-0.75,0.61C30.62,45.22,30.33,45.29,30.01,45.29z M29.94,40.32
					c-0.49,0-0.86,0.19-1.11,0.57c-0.26,0.39-0.39,0.99-0.39,1.78c0,0.8,0.14,1.41,0.41,1.81c0.26,0.39,0.65,0.58,1.17,0.58
					c0.29,0,0.55-0.06,0.78-0.17c0.22-0.11,0.44-0.28,0.65-0.52v-3.39c-0.19-0.2-0.41-0.36-0.66-0.47
					C30.51,40.38,30.23,40.32,29.94,40.32z"/>
			</g>
			<g>
				<path d="M38.05,39.93c0.41,0.34,0.62,0.83,0.62,1.48v4.43h-0.79v-0.76c-0.41,0.59-1.04,0.89-1.89,0.89
					c-0.62,0-1.1-0.16-1.45-0.49s-0.52-0.79-0.52-1.37c0-0.74,0.31-1.29,0.93-1.65s1.57-0.54,2.87-0.54v-0.43
					c0-0.41-0.13-0.72-0.38-0.93s-0.62-0.32-1.11-0.32c-0.51,0-1,0.11-1.48,0.34l-0.22-0.71c0.55-0.28,1.15-0.42,1.79-0.42
					C37.1,39.43,37.64,39.6,38.05,39.93z M37.08,45.01c0.27-0.13,0.51-0.32,0.74-0.57v-1.82c-1.01,0.01-1.75,0.13-2.23,0.36
					s-0.71,0.59-0.71,1.07c0,0.38,0.11,0.66,0.33,0.86s0.54,0.29,0.97,0.29C36.52,45.2,36.82,45.13,37.08,45.01z"/>
				<path d="M35.99,46.08c-0.64,0-1.16-0.18-1.53-0.52c-0.37-0.35-0.56-0.84-0.56-1.45c0-0.78,0.33-1.37,0.98-1.75
					c0.61-0.35,1.56-0.54,2.81-0.56v-0.32c0-0.37-0.11-0.65-0.34-0.84c-0.23-0.2-0.58-0.29-1.03-0.29c-0.49,0-0.97,0.11-1.43,0.33
					l-0.12,0.06l-0.29-0.93l0.09-0.04c0.57-0.29,1.19-0.43,1.84-0.43c0.7,0,1.27,0.18,1.7,0.53c0.44,0.36,0.66,0.88,0.66,1.56v4.54
					h-1.01V45.4C37.34,45.85,36.75,46.08,35.99,46.08z M36.33,40.11c0.51,0,0.91,0.12,1.18,0.35c0.28,0.24,0.42,0.58,0.42,1.02v0.55
					l-0.11,0c-1.27,0.01-2.22,0.19-2.81,0.53c-0.58,0.34-0.87,0.84-0.87,1.55c0,0.55,0.16,0.98,0.49,1.29
					c0.32,0.31,0.78,0.46,1.37,0.46c0.82,0,1.41-0.28,1.79-0.84l0.21-0.3v1.02h0.56v-4.32c0-0.62-0.19-1.07-0.57-1.39
					c-0.39-0.32-0.91-0.48-1.55-0.48c-0.59,0-1.14,0.12-1.65,0.37l0.16,0.5C35.38,40.21,35.85,40.11,36.33,40.11z M36.18,45.31
					c-0.46,0-0.81-0.11-1.05-0.32c-0.24-0.22-0.37-0.53-0.37-0.94c0-0.53,0.26-0.92,0.78-1.17c0.49-0.24,1.26-0.36,2.28-0.37l0.12,0
					v1.97l-0.03,0.03c-0.24,0.27-0.5,0.47-0.78,0.6C36.85,45.24,36.53,45.31,36.18,45.31z M37.71,42.73
					c-0.93,0.02-1.62,0.13-2.06,0.34C35.21,43.29,35,43.61,35,44.05c0,0.34,0.09,0.6,0.29,0.77c0.2,0.17,0.5,0.26,0.9,0.26
					c0.32,0,0.6-0.06,0.85-0.18c0.24-0.11,0.47-0.29,0.67-0.51V42.73z"/>
			</g>
			<g>
				<path d="M45.23,39.58L43,45.93c-0.2,0.56-0.53,1.05-0.99,1.47s-1.03,0.75-1.73,1l-0.3-0.75c0.56-0.2,1.02-0.44,1.37-0.72
					s0.63-0.63,0.82-1.04l-2.23-6.32h0.93l1.73,5.24l1.71-5.24H45.23z"/>
				<path d="M40.22,48.55l-0.39-0.96l0.11-0.04c0.55-0.19,1-0.43,1.34-0.7c0.33-0.26,0.58-0.58,0.77-0.96l-2.26-6.42h1.17l0.03,0.08
					l1.63,4.91l1.63-4.99h1.16l-2.28,6.5c-0.21,0.58-0.55,1.09-1.02,1.52c-0.47,0.43-1.06,0.77-1.77,1.03L40.22,48.55z M40.13,47.72
					l0.22,0.54c0.63-0.24,1.17-0.56,1.59-0.94c0.44-0.4,0.76-0.88,0.96-1.43l2.17-6.2H44.4l-1.79,5.49l-1.82-5.49H40.1l2.19,6.21
					l-0.02,0.04c-0.2,0.42-0.49,0.78-0.85,1.08C41.08,47.3,40.65,47.53,40.13,47.72z"/>
			</g>
		</g>
		<g>
			<path class="st0" d="M41.91,56.2c-3.77,1.11-7.89,1.17-11.94-0.04C18.84,52.83,12.51,41.1,15.84,29.97S30.9,12.51,42.03,15.84
				c11.13,3.33,17.46,15.05,14.13,26.19c-1.12,3.74-3.19,6.94-5.86,9.41"/>
			<polyline class="st0" points="55.73,51.67 49.87,51.59 49.95,45.74 			"/>
		</g>
		<g>
			<line class="st0" x1="36" y1="57.05" x2="36" y2="63.46"/>
			<line class="st0" x1="36" y1="8.54" x2="36" y2="14.96"/>
			<line class="st0" x1="14.95" y1="36" x2="8.54" y2="36"/>
			<line class="st0" x1="63.46" y1="36" x2="57.04" y2="36"/>
			<line class="st0" x1="21.12" y1="21.12" x2="16.59" y2="16.59"/>
			<line class="st0" x1="21.12" y1="50.88" x2="16.59" y2="55.41"/>
			<line class="st0" x1="55.41" y1="16.59" x2="50.88" y2="21.12"/>
		</g>
	</g>
</g>
<g id="white" class="st4">
	<g class="st5">
		<text transform="matrix(1 0 0 1 32.8829 32.8396)"><tspan x="0" y="0" class="st6 st7 st8">2</tspan><tspan x="-6.38" y="13" class="st6 st7 st8">day</tspan></text>
		<g>
			<path class="st9" d="M41.91,56.2c-3.77,1.11-7.89,1.17-11.94-0.04C18.84,52.83,12.51,41.1,15.84,29.97S30.9,12.51,42.03,15.84
				c11.13,3.33,17.46,15.05,14.13,26.19c-1.12,3.74-3.19,6.94-5.86,9.41"/>
			<polyline class="st9" points="55.73,51.67 49.87,51.59 49.95,45.74 			"/>
		</g>
		<g>
			<line class="st9" x1="36" y1="57.05" x2="36" y2="63.46"/>
			<line class="st9" x1="36" y1="8.54" x2="36" y2="14.96"/>
			<line class="st9" x1="14.95" y1="36" x2="8.54" y2="36"/>
			<line class="st9" x1="63.46" y1="36" x2="57.04" y2="36"/>
			<line class="st9" x1="21.12" y1="21.12" x2="16.59" y2="16.59"/>
			<line class="st9" x1="21.12" y1="50.88" x2="16.59" y2="55.41"/>
			<line class="st9" x1="55.41" y1="16.59" x2="50.88" y2="21.12"/>
		</g>
	</g>
</g>
</svg>
