<?xml version="1.0" encoding="utf-8"?>
<!-- Generator: Adobe Illustrator 24.0.0, SVG Export Plug-In . SVG Version: 6.00 Build 0)  -->
<svg version="1.1" xmlns="http://www.w3.org/2000/svg" xmlns:xlink="http://www.w3.org/1999/xlink" x="0px" y="0px"
	 viewBox="0 0 72 72" style="enable-background:new 0 0 72 72;" xml:space="preserve">
<style type="text/css">
	.st0{fill:none;stroke:#000000;stroke-width:1.5;stroke-miterlimit:10;}
	.st1{fill:none;stroke:#060000;stroke-width:1.5;stroke-miterlimit:10;}
	.st2{fill:none;stroke:#060000;stroke-width:1.5;stroke-linejoin:round;stroke-miterlimit:10;}
	.st3{fill:none;stroke:#231F20;stroke-width:1.5;stroke-miterlimit:10;}
	.st4{display:none;}
	.st5{display:inline;}
	.st6{fill:none;stroke:#FFFFFF;stroke-width:1.5;stroke-miterlimit:10;}
	.st7{fill:none;stroke:#FFFFFF;stroke-width:1.5;stroke-linejoin:round;stroke-miterlimit:10;}
	.st8{fill:#FFFFFF;}
</style>
<g id="black">
	<g>
		<g>
			<g>
				<polygon points="41.13,31.15 38.57,31.15 38.57,31.14 35.44,31.14 35.44,31.14 32.95,40.42 34.8,40.42 33.32,48.79 39.91,37.33 
					37.56,37.33 				"/>
			</g>
		</g>
		<g>
			<g>
				<g>
					<g>
						<path class="st3" d="M30.16,16.73h-7.87c-0.55,0-1,0.45-1,1V60c0,0.55,0.45,1,1,1h27.41c0.55,0,1-0.03,1-0.06
							c0-0.03,0-0.51,0-1.06V17.73c0-0.55-0.45-1-1-1h-7.87"/>
					</g>
				</g>
				<g>
					<path class="st3" d="M41.84,17.49V11.3c0-0.16-0.13-0.3-0.3-0.3l-11.07,0c-0.17,0-0.3,0.13-0.3,0.3v6.19"/>
				</g>
			</g>
		</g>
	</g>
</g>
<g id="white" class="st4">
	<g class="st5">
		<g>
			<g>
				<polygon class="st8" points="41.13,31.15 38.57,31.15 38.57,31.14 35.44,31.14 35.44,31.14 32.95,40.42 34.8,40.42 33.32,48.79 
					39.91,37.33 37.56,37.33 				"/>
			</g>
		</g>
		<g>
			<g>
				<g>
					<g>
						<path class="st6" d="M30.16,16.73h-7.87c-0.55,0-1,0.45-1,1V60c0,0.55,0.45,1,1,1h27.41c0.55,0,1-0.03,1-0.06
							c0-0.03,0-0.51,0-1.06V17.73c0-0.55-0.45-1-1-1h-7.87"/>
					</g>
				</g>
				<g>
					<path class="st6" d="M41.84,17.49V11.3c0-0.16-0.13-0.3-0.3-0.3l-11.07,0c-0.17,0-0.3,0.13-0.3,0.3v6.19"/>
				</g>
			</g>
		</g>
	</g>
</g>
</svg>
