<?xml version="1.0" encoding="utf-8"?>
<!-- Generator: Adobe Illustrator 24.0.0, SVG Export Plug-In . SVG Version: 6.00 Build 0)  -->
<svg version="1.1" id="Layer_1" xmlns="http://www.w3.org/2000/svg" xmlns:xlink="http://www.w3.org/1999/xlink" x="0px" y="0px"
	 viewBox="0 0 72 72" style="enable-background:new 0 0 72 72;" xml:space="preserve">
<style type="text/css">
	.st0{fill:none;stroke:#000000;stroke-width:1.5;stroke-miterlimit:10;}
	.st1{fill:none;stroke:#060000;stroke-width:1.5;stroke-miterlimit:10;}
	.st2{fill:none;stroke:#060000;stroke-width:1.5;stroke-linejoin:round;stroke-miterlimit:10;}
	.st3{fill:none;stroke:#231F20;stroke-width:1.5;stroke-miterlimit:10;}
</style>
<g>
	<g>
		<g>
			<ellipse class="st1" cx="36" cy="37.01" rx="6.77" ry="6.74"/>
		</g>
		<g>
			<path class="st1" d="M44.11,26.24c-0.31,0-0.67-0.22-0.81-0.5l-1.39-2.76c-0.14-0.27-0.5-0.5-0.81-0.5H30.9
				c-0.31,0-0.67,0.22-0.81,0.5l-1.39,2.76c-0.14,0.27-0.5,0.5-0.81,0.5h-7.57c-0.31,0-0.56,0.25-0.56,0.56v22.16
				c0,0.31,0.25,0.56,0.56,0.56h31.35c0.31,0,0.56-0.25,0.56-0.56V26.8c0-0.31-0.25-0.56-0.56-0.56H44.11z"/>
		</g>
	</g>
</g>
<g>
	<polyline class="st2" points="64,11.38 60.46,16.3 64,21.22 60.46,26.14 64,31.07 60.46,35.99 64,40.91 60.46,45.83 64,50.76 
		60.46,55.69 64,60.62 	"/>
	<polyline class="st2" points="8,11.38 11.54,16.3 8,21.22 11.54,26.14 8,31.07 11.54,35.99 8,40.91 11.54,45.83 8,50.76 
		11.54,55.69 8,60.62 	"/>
</g>
</svg>
